<svg width="253" height="225" viewBox="0 0 253 225" fill="none" xmlns="http://www.w3.org/2000/svg">
    <path
        d="M252.13 73.9706L205.464 2.00299C204.647 0.74223 203.366 0 202.007 0H50.9938C49.6345 0 48.3536 0.741657 47.5363 2.00299L0.870288 73.9706C-0.422875 75.9644 -0.258821 78.7572 1.25522 80.5296L28.043 111.881C29.7261 113.85 32.4666 113.862 34.1639 111.909C35.8608 109.956 35.8722 106.774 34.1886 104.804L14.7161 82.0152H60.3874L109.776 193.268L46.26 118.933C44.5759 116.962 41.8359 116.95 40.1391 118.904C38.4422 120.857 38.4308 124.038 40.1144 126.009L123.427 223.514C124.24 224.465 125.346 225 126.5 225C127.654 225 128.76 224.465 129.572 223.514L251.744 80.5302C253.259 78.7572 253.423 75.9638 252.13 73.9706ZM174.126 112.693C172.002 111.422 169.391 112.391 168.296 114.857L130.828 199.259C130.828 153.473 130.828 127.802 130.828 82.0152H182.876L177.752 93.5571C176.657 96.0235 177.492 99.0533 179.616 100.324C181.742 101.595 184.351 100.627 185.446 98.1602L192.613 82.0152H238.284L143.226 193.268L175.99 119.461C177.085 116.994 176.25 113.964 174.126 112.693ZM57.7774 71.9676H13.0024L48.5987 17.0701L57.7774 71.9676ZM56.2426 10.0476H115.876L65.7454 66.8856L56.2426 10.0476ZM122.173 16.9531V71.9676H73.6506L122.173 16.9531ZM130.829 16.9531L179.351 71.9676H130.829V16.9531ZM137.124 10.0476H196.759L187.256 66.8867L137.124 10.0476ZM195.223 71.9676L204.401 17.0707L239.998 71.9676H195.223ZM122.173 82.0152C122.173 127.802 122.173 153.473 122.173 199.26L70.1249 82.0152H122.173Z"
        fill="black"/>
</svg>
