<svg width="256" height="256" viewBox="0 0 256 256" fill="none" xmlns="http://www.w3.org/2000/svg">
    <path
        d="M251.876 78.9108L197.467 15.5899L58.6818 15.5899L58.112 16.2515L3.12308 80.1069L129.778 239.409L251.876 78.9108H251.876ZM246.345 79.1161L129.716 232.428L8.7184 80.2441L60.2536 20.3999L195.894 20.3999L246.346 79.1161H246.345Z"
        fill="#A7D8DE"/>
    <path d="M249.117 82.0851L249.104 77.276L7.08351 78.2287L7.09638 83.0378L249.117 82.0851V82.0851Z" fill="#A7D8DE"/>
    <path d="M198.943 20.5014L195.635 17.8973L163.264 79.3171L166.572 81.9222L198.943 20.5014V20.5014Z" fill="#A7D8DE"/>
    <path d="M168.453 79.19L131.039 18.2193L127.89 21.1049L165.304 82.0756L168.453 79.19Z" fill="#A7D8DE"/>
    <path d="M131.814 20.6362L128.675 17.7363L91.2607 78.2306L94.4 81.1305L131.814 20.6362V20.6362Z" fill="#A7D8DE"/>
    <path
        d="M93.7086 79.814L60.5818 16.4616L57.2664 19.0519L90.3932 82.4043L93.7086 79.814V79.814ZM131.432 20.6148H127.497V80.6328H131.432V20.6148Z"
        fill="#A7D8DE"/>
    <path d="M131.432 79.2033H127.497L127.497 236.393H131.432V79.2033Z" fill="#A7D8DE"/>
    <path d="M167.991 80.337L164.206 79.0232L128.351 233.355L132.136 234.669L167.991 80.337Z" fill="#A7D8DE"/>
    <path
        d="M130.574 233.819L93.9401 79.4867L90.1609 80.8271L126.795 235.159L130.574 233.819V233.819ZM61.1617 20.1456L57.3669 18.8733L43.8254 79.1962L47.621 80.4689L61.1617 20.146V20.1456ZM213.551 78.1935L198.806 17.4005L195.034 18.7675L209.777 79.5601L213.551 78.193V78.1935Z"
        fill="#A7D8DE"/>
    <path d="M213.739 80.0345L210.435 77.4213L128.203 232.706L131.506 235.319L213.739 80.0345V80.0345Z" fill="#A7D8DE"/>
    <path d="M131.493 234.111L46.5321 77.8734L43.2549 80.5351L128.215 236.772L131.493 234.111V234.111Z" fill="#A7D8DE"/>
    <path
        d="M171.008 179C136.967 174.979 116.57 174.429 84.4256 178.466L86.1769 184.079C120.557 180.602 138.998 181.067 171.008 184.451L171.008 179Z"
        fill="#A7D8DE"/>
</svg>
